<?xml version="1.0" encoding="UTF-8"?>
<svg xmlns="http://www.w3.org/2000/svg" width="396" height="127" viewBox="0 0 396 127" fill="none">
  <path d="M0 93.4251V0.138672H33.1725C40.7196 0.138672 47.3015 1.36497 52.918 3.81757C58.6222 6.27017 63.3612 9.59871 67.1347 13.8032C70.9961 18.0076 73.8921 22.9566 75.8228 28.6502C77.7534 34.2561 78.7188 40.2562 78.7188 46.6505C78.7188 53.7455 77.6218 60.1836 75.4279 65.9647C73.3217 71.6583 70.294 76.5635 66.3449 80.6803C62.3958 84.7096 57.613 87.863 51.9965 90.1404C46.38 92.3302 40.1053 93.4251 33.1725 93.4251H0ZM63.7122 46.6505C63.7122 41.7453 63.0101 37.2343 61.606 33.1174C60.2896 29.0005 58.3151 25.4968 55.6823 22.6063C53.0496 19.6281 49.8464 17.3069 46.0729 15.6426C42.2993 13.9784 37.9991 13.1462 33.1725 13.1462H14.7433V80.4176H33.1725C38.0869 80.4176 42.4309 79.5854 46.2045 77.9212C50.0658 76.1693 53.269 73.8043 55.814 70.8261C58.4467 67.7604 60.4213 64.1691 61.7376 60.0522C63.054 55.9353 63.7122 51.4681 63.7122 46.6505Z" fill="#194337"></path>
  <path d="M153.405 125.002H149.137V111.185H153.594C154.936 111.185 156.084 111.462 157.038 112.015C157.992 112.564 158.724 113.353 159.233 114.383C159.741 115.409 159.996 116.636 159.996 118.067C159.996 119.506 159.739 120.745 159.226 121.784C158.713 122.819 157.965 123.615 156.984 124.172C156.003 124.726 154.81 125.002 153.405 125.002ZM150.812 123.518H153.297C154.441 123.518 155.388 123.298 156.14 122.857C156.892 122.416 157.452 121.789 157.821 120.975C158.19 120.16 158.375 119.191 158.375 118.067C158.375 116.951 158.193 115.991 157.828 115.186C157.463 114.376 156.919 113.756 156.194 113.324C155.469 112.888 154.567 112.669 153.486 112.669H150.812V123.518Z" fill="#194337"></path>
  <path d="M164.326 125.002V111.185H172.672V112.669H166.001V117.338H172.24V118.822H166.001V123.518H172.78V125.002H164.326Z" fill="#194337"></path>
  <path d="M184.648 111.185L188.754 122.816H188.916L193.022 111.185H194.777L189.699 125.002H187.971L182.893 111.185H184.648Z" fill="#194337"></path>
  <path d="M197.831 125.002H196.076L201.154 111.185H202.882L207.96 125.002H206.205L202.072 113.371H201.964L197.831 125.002ZM198.48 119.605H205.556V121.089H198.48V119.605Z" fill="#194337"></path>
  <path d="M211.636 125.002V111.185H213.31V123.518H219.739V125.002H211.636Z" fill="#194337"></path>
  <path d="M223.853 125.002V111.185H232.199V112.669H225.528V117.338H231.767V118.822H225.528V123.518H232.307V125.002H223.853Z" fill="#194337"></path>
  <path d="M245.814 111.185H247.489V120.334C247.489 121.278 247.266 122.121 246.821 122.864C246.379 123.601 245.756 124.184 244.95 124.611C244.144 125.034 243.199 125.245 242.114 125.245C241.029 125.245 240.084 125.034 239.278 124.611C238.472 124.184 237.846 123.601 237.401 122.864C236.96 122.121 236.739 121.278 236.739 120.334V111.185H238.414V120.199C238.414 120.873 238.562 121.474 238.859 122C239.156 122.522 239.58 122.933 240.129 123.235C240.682 123.532 241.344 123.68 242.114 123.68C242.884 123.68 243.546 123.532 244.099 123.235C244.653 122.933 245.076 122.522 245.369 122C245.666 121.474 245.814 120.873 245.814 120.199V111.185Z" fill="#194337"></path>
  <path d="M252.355 125.002V111.185H257.027C258.108 111.185 258.995 111.37 259.688 111.738C260.381 112.103 260.894 112.604 261.227 113.243C261.561 113.882 261.727 114.608 261.727 115.422C261.727 116.236 261.561 116.958 261.227 117.588C260.894 118.217 260.383 118.712 259.695 119.072C259.006 119.427 258.126 119.605 257.054 119.605H253.273V118.094H257C257.739 118.094 258.333 117.986 258.783 117.77C259.238 117.554 259.566 117.248 259.769 116.852C259.976 116.452 260.08 115.975 260.08 115.422C260.08 114.869 259.976 114.385 259.769 113.971C259.562 113.558 259.231 113.238 258.776 113.013C258.322 112.784 257.721 112.669 256.973 112.669H254.029V125.002H252.355ZM258.864 118.795L262.267 125.002H260.323L256.973 118.795H258.864Z" fill="#194337"></path>
  <path d="M283.874 111.185V125.002H282.254L274.718 114.154H274.583V125.002H272.908V111.185H274.529L282.092 122.061H282.227V111.185H283.874Z" fill="#194337"></path>
  <path d="M297.822 111.185H299.497V120.334C299.497 121.278 299.274 122.121 298.828 122.864C298.387 123.601 297.764 124.184 296.958 124.611C296.152 125.034 295.207 125.245 294.122 125.245C293.037 125.245 292.091 125.034 291.286 124.611C290.48 124.184 289.854 123.601 289.408 122.864C288.967 122.121 288.747 121.278 288.747 120.334V111.185H290.421V120.199C290.421 120.873 290.57 121.474 290.867 122C291.164 122.522 291.587 122.933 292.137 123.235C292.69 123.532 293.352 123.68 294.122 123.68C294.892 123.68 295.553 123.532 296.107 123.235C296.661 122.933 297.084 122.522 297.377 122C297.674 121.474 297.822 120.873 297.822 120.199V111.185Z" fill="#194337"></path>
  <path d="M304.362 111.185H306.361L311.061 122.654H311.223L315.923 111.185H317.922V125.002H316.355V114.504H316.22L311.898 125.002H310.386L306.064 114.504H305.929V125.002H304.362V111.185Z" fill="#194337"></path>
  <path d="M322.801 125.002V111.185H331.147V112.669H324.475V117.338H330.715V118.822H324.475V123.518H331.255V125.002H322.801ZM326.231 109.782L327.879 106.651H329.742L327.635 109.782H326.231Z" fill="#194337"></path>
  <path d="M335.686 125.002V111.185H340.359C341.44 111.185 342.327 111.37 343.02 111.738C343.713 112.103 344.226 112.604 344.559 113.243C344.893 113.882 345.059 114.608 345.059 115.422C345.059 116.236 344.893 116.958 344.559 117.588C344.226 118.217 343.715 118.712 343.027 119.072C342.338 119.427 341.458 119.605 340.386 119.605H336.605V118.094H340.332C341.071 118.094 341.665 117.986 342.115 117.77C342.57 117.554 342.898 117.248 343.101 116.852C343.308 116.452 343.411 115.975 343.411 115.422C343.411 114.869 343.308 114.385 343.101 113.971C342.894 113.558 342.563 113.238 342.108 113.013C341.654 112.784 341.053 112.669 340.305 112.669H337.361V125.002H335.686ZM342.196 118.795L345.599 125.002H343.655L340.305 118.795H342.196Z" fill="#194337"></path>
  <path d="M351.045 111.185V125.002H349.371V111.185H351.045Z" fill="#194337"></path>
  <path d="M360.948 120.684H362.785L364.325 122.708L364.73 123.248L367.026 126.298H365.189L363.676 124.274L363.298 123.761L360.948 120.684ZM367.593 118.094C367.593 119.551 367.33 120.81 366.803 121.872C366.276 122.933 365.554 123.752 364.635 124.328C363.717 124.903 362.668 125.191 361.489 125.191C360.309 125.191 359.26 124.903 358.342 124.328C357.424 123.752 356.701 122.933 356.174 121.872C355.648 120.81 355.384 119.551 355.384 118.094C355.384 116.636 355.648 115.377 356.174 114.316C356.701 113.254 357.424 112.436 358.342 111.86C359.26 111.284 360.309 110.996 361.489 110.996C362.668 110.996 363.717 111.284 364.635 111.86C365.554 112.436 366.276 113.254 366.803 114.316C367.33 115.377 367.593 116.636 367.593 118.094ZM365.972 118.094C365.972 116.897 365.772 115.888 365.371 115.064C364.975 114.241 364.437 113.618 363.757 113.196C363.082 112.773 362.326 112.561 361.489 112.561C360.651 112.561 359.893 112.773 359.213 113.196C358.538 113.618 358 114.241 357.599 115.064C357.203 115.888 357.005 116.897 357.005 118.094C357.005 119.29 357.203 120.3 357.599 121.123C358 121.946 358.538 122.569 359.213 122.992C359.893 123.415 360.651 123.626 361.489 123.626C362.326 123.626 363.082 123.415 363.757 122.992C364.437 122.569 364.975 121.946 365.371 121.123C365.772 120.3 365.972 119.29 365.972 118.094Z" fill="#194337"></path>
  <path d="M381.006 111.185H382.68V120.334C382.68 121.278 382.457 122.121 382.012 122.864C381.571 123.601 380.947 124.184 380.141 124.611C379.335 125.034 378.39 125.245 377.305 125.245C376.22 125.245 375.275 125.034 374.469 124.611C373.663 124.184 373.037 123.601 372.592 122.864C372.151 122.121 371.93 121.278 371.93 120.334V111.185H373.605V120.199C373.605 120.873 373.753 121.474 374.05 122C374.347 122.522 374.771 122.933 375.32 123.235C375.874 123.532 376.535 123.68 377.305 123.68C378.075 123.68 378.737 123.532 379.29 123.235C379.844 122.933 380.267 122.522 380.56 122C380.857 121.474 381.006 120.873 381.006 120.199V111.185Z" fill="#194337"></path>
  <path d="M387.546 125.002V111.185H395.892V112.669H389.22V117.338H395.46V118.822H389.22V123.518H396V125.002H387.546Z" fill="#194337"></path>
  <path d="M18.3099 125.002V111.185H26.6562V112.669H19.9846V117.338H26.224V118.822H19.9846V123.518H26.7642V125.002H18.3099ZM21.7403 109.782L23.3879 106.651H25.2516L23.1448 109.782H21.7403Z" fill="#194337"></path>
  <path d="M42.1621 111.185V125.002H40.5414L33.0055 114.154H32.8705V125.002H31.1958V111.185H32.8165L40.3794 122.061H40.5144V111.185H42.1621Z" fill="#194337"></path>
  <path d="M47.0343 125.002V111.185H55.3805V112.669H48.7089V117.338H54.9484V118.822H48.7089V123.518H55.4886V125.002H47.0343ZM50.4646 109.782L52.1123 106.651H53.976L51.8692 109.782H50.4646Z" fill="#194337"></path>
  <path d="M59.9202 125.002V111.185H64.593C65.6734 111.185 66.5603 111.37 67.2535 111.738C67.9468 112.103 68.46 112.604 68.7931 113.243C69.1263 113.882 69.2928 114.608 69.2928 115.422C69.2928 116.236 69.1263 116.958 68.7931 117.588C68.46 118.217 67.949 118.712 67.2603 119.072C66.5715 119.427 65.6914 119.605 64.62 119.605H60.8385V118.094H64.566C65.3043 118.094 65.8985 117.986 66.3487 117.77C66.8033 117.554 67.132 117.248 67.3346 116.852C67.5416 116.452 67.6452 115.975 67.6452 115.422C67.6452 114.869 67.5416 114.385 67.3346 113.971C67.1275 113.558 66.7966 113.238 66.3419 113.013C65.8872 112.784 65.2863 112.669 64.539 112.669H61.5948V125.002H59.9202ZM66.4297 118.795L69.833 125.002H67.8883L64.539 118.795H66.4297Z" fill="#194337"></path>
  <path d="M74.1718 125.002H72.4161L77.4941 111.185H79.2227L84.3007 125.002H82.545L78.4124 113.371H78.3044L74.1718 125.002ZM74.82 119.605H81.8968V121.089H74.82V119.605Z" fill="#194337"></path>
  <path d="M85.6042 112.669V111.185H95.9762V112.669H91.6275V125.002H89.9529V112.669H85.6042Z" fill="#194337"></path>
  <path d="M100.082 125.002V111.185H108.428V112.669H101.757V117.338H107.996V118.822H101.757V123.518H108.536V125.002H100.082Z" fill="#194337"></path>
  <path d="M122.043 111.185H123.718V120.334C123.718 121.278 123.495 122.121 123.05 122.864C122.608 123.601 121.985 124.184 121.179 124.611C120.373 125.034 119.428 125.245 118.343 125.245C117.258 125.245 116.313 125.034 115.507 124.611C114.701 124.184 114.075 123.601 113.63 122.864C113.188 122.121 112.968 121.278 112.968 120.334V111.185H114.643V120.199C114.643 120.873 114.791 121.474 115.088 122C115.385 122.522 115.808 122.933 116.358 123.235C116.911 123.532 117.573 123.68 118.343 123.68C119.113 123.68 119.775 123.532 120.328 123.235C120.882 122.933 121.305 122.522 121.598 122C121.895 121.474 122.043 120.873 122.043 120.199V111.185Z" fill="#194337"></path>
  <path d="M128.584 125.002V111.185H133.256C134.337 111.185 135.224 111.37 135.917 111.738C136.61 112.103 137.123 112.604 137.456 113.243C137.79 113.882 137.956 114.608 137.956 115.422C137.956 116.236 137.79 116.958 137.456 117.588C137.123 118.217 136.612 118.712 135.924 119.072C135.235 119.427 134.355 119.605 133.283 119.605H129.502V118.094H133.229C133.968 118.094 134.562 117.986 135.012 117.77C135.467 117.554 135.795 117.248 135.998 116.852C136.205 116.452 136.309 115.975 136.309 115.422C136.309 114.869 136.205 114.385 135.998 113.971C135.791 113.558 135.46 113.238 135.005 113.013C134.551 112.784 133.95 112.669 133.202 112.669H130.258V125.002H128.584ZM135.093 118.795L138.496 125.002H136.552L133.202 118.795H135.093Z" fill="#194337"></path>
  <path d="M185.103 93.4251V0.138672H199.843V93.4251H185.103Z" fill="#194337"></path>
  <path d="M235.699 27.7304V93.4251H220.96V0.138672H232.541L285.971 67.41V0.27006H300.842V93.4251H288.603L235.699 27.7304Z" fill="#194337"></path>
  <path d="M391.925 25.6805H374.858C374.858 25.6805 366.622 14.0714 349.754 14.272C332.885 14.4726 324.23 27.7013 324.23 27.7013C324.23 27.7013 316.612 35.3059 318.299 51.4797C319.986 67.6535 334.771 75.6907 334.771 75.6907C334.771 75.6907 348.96 84.0228 364.043 76.1868C364.043 76.1868 370.26 73.1302 373.263 69.807H383.516V79.9068C383.516 79.9068 372.349 93.4566 349.487 93.5098C328.168 93.5591 315.792 77.743 315.792 77.743C315.792 77.743 304.65 67.3068 303.739 47.8194C302.829 28.332 314.276 17.2087 314.276 17.2087C314.276 17.2087 320.648 7.48648 336.2 2.19434C351.752 -3.09779 366.764 2.84553 366.764 2.84553C366.764 2.84553 383.883 9.05803 391.064 24.0423" fill="#ADBE96"></path>
  <path d="M359.866 57.4932H395.909V93.4267H386.459L386.24 67.2731H359.866V57.4932Z" fill="#ADBE96"></path>
  <path d="M13.8564 114.28H11.9849C11.5551 113.533 10.937 112.911 10.1921 112.477C9.44721 112.043 8.60159 111.811 7.73943 111.806C6.4454 111.833 5.04754 112.019 4.13037 112.758C3.27554 113.339 2.56928 114.113 2.06851 115.018C1.98903 115.16 1.67498 116.16 1.63204 116.327C1.54798 116.754 1.51591 117.19 1.53654 117.625C1.56437 118.329 1.73168 119.02 2.02877 119.658C2.39411 120.59 2.97924 121.419 3.73428 122.075C4.71673 122.942 5.99471 123.397 7.3036 123.347C8.20437 123.471 9.12056 123.282 9.89807 122.81C10.6578 122.411 11.3272 121.86 11.8644 121.19H12.5374V122.772C11.8343 123.476 10.9943 124.028 10.0693 124.394C9.14426 124.76 8.15398 124.933 7.15964 124.901C6.1653 124.869 5.18805 124.634 4.28832 124.209C3.3886 123.785 2.58553 123.18 1.92879 122.433C0.751346 121.152 0.080423 119.486 0.0412548 117.746C-0.015802 116.877 0.100751 116.006 0.38411 115.182C0.66747 114.359 1.11196 113.601 1.69164 112.951C2.56568 111.831 3.76544 111.009 5.12573 110.6C6.69144 110.121 8.36939 110.156 9.91345 110.701C9.91345 110.701 12.5951 111.674 13.7199 114.021" fill="#194337"></path>
  <path d="M8.83459 119.263H14.4814V124.892H13.0006L12.9667 120.795H8.83459V119.263Z" fill="#194337"></path>
  <path d="M157.511 75.2376C150.966 81.6894 142.389 85.6759 133.237 86.5194C124.086 87.3629 114.924 85.0115 107.31 79.8647C99.6964 74.7178 94.0995 67.0933 91.4709 58.2868C88.8424 49.4804 89.3444 40.0354 92.8916 31.5572C96.4388 23.079 102.812 16.0906 110.929 11.7799C119.046 7.4692 128.405 6.10208 137.415 7.91092C146.426 9.71976 154.532 14.5929 160.356 21.7022C166.181 28.8115 169.363 37.7182 169.364 46.9086" stroke="#194337" stroke-width="13.5957" stroke-miterlimit="10"></path>
  <path d="M162.48 45.1594C162.48 45.1594 163.057 57.9266 155.558 67.3265H165.115V76.7443C165.115 76.7443 177.357 65.8658 176.136 44.3672" fill="#194337"></path>
  <path d="M150.999 72.0596L153.126 69.833H162.554V79.8481L160.992 81.437" fill="#194337"></path>
</svg>
